# xmcd
#
# Track frame offsets:
#	150
#	9213
#	28648
#	70915
#	100005
#	112273
#	128697
#	169955
#	187399
#	195819
#	222011
#	239604
#	263275
#	280269
#	306377
#	320453
#
# Disc length: 4563 seconds
#
# Revision: 1
# Processed by: cddbd v1.5.2PL0 Copyright (c) Steve Scherf et al.
# Submitted via: audiograbber 1.83.01
#
DISCID=df11d110
DTITLE=Enigma - Music History
DYEAR=2001
DGENRE=
TTITLE0=The Gate
TTITLE1=Return To Innocence
TTITLE2=Back To The Rivers Of Belief
TTITLE3=Push The Limits
TTITLE4=Responsorium II
TTITLE5=The Roundabout
TTITLE6=Metamorphosis
TTITLE7=Gravity Of Love
TTITLE8=I Love You...Ill Kill You
TTITLE9=Silent Warrior
TTITLE10=Traces Light And Weight
TTITLE11=Light Of Your Smile
TTITLE12=Modern Crusaders
TTITLE13=Sensing The Spheres
TTITLE14=Endless Quest
TTITLE15=Silence Must Be Heard
EXTD=
EXTT0=
EXTT1=
EXTT2=
EXTT3=
EXTT4=
EXTT5=
EXTT6=
EXTT7=
EXTT8=
EXTT9=
EXTT10=
EXTT11=
EXTT12=
EXTT13=
EXTT14=
EXTT15=
PLAYORDER=
